<?xml version="1.0"?>
<svg xmlns:rdf="http://www.w3.org/1999/02/22-rdf-syntax-ns#" xmlns="http://www.w3.org/2000/svg" xmlns:cc="http://web.resource.org/cc/" xmlns:xlink="http://www.w3.org/1999/xlink" xmlns:dc="http://purl.org/dc/elements/1.1/" xmlns:svg="http://www.w3.org/2000/svg" id="Layer_1" version="1.0" xml:space="preserve" viewBox="0 0 52.533 91.164" enable-background="new 0 0 52.533 91.164" y="0px" x="0px">
	<path d="m49.486 17.314c0.014 0.041 0.021 0.063 0.021 0.063s-0.009-0.023-0.021-0.063zc-0.004-0.008-0.007-0.017-0.01-0.025-0.361-1.067-0.075-0.223 0.01 0.025zm-48.812 62.898c0.642-0.026 2.796 1.385 2.796 1.385l2.514-0.154c1.333 0.077 2.359-0.642 2.359-0.642s-0.386-0.718-0.643-1.436c-0.004-0.017-0.01-0.033-0.016-0.049-0.211-0.694 0.401-1.234 0.401-1.234 0.462-0.256 1.692-1.77 1.692-1.77 0.898-0.77 0.846-1.487 0.898-2.308 0.051-0.82 1.666-6.361 1.666-6.361 0.103-0.897 0.488-1.513 0.488-1.513 0.025-0.102 0.615-0.231 0.538-1.052-0.077-0.82 0.487-2.256 0.487-2.256l3.026-6.438c0.513-1.667 0.923-3.873 1.025-4.745 0.103-0.871 4.822-8.027 4.822-8.027 0.614-0.744 0.641-1.41 0.641-1.41-0.308-0.616-0.513-6.719-0.513-6.719-0.076-1.232-0.025-8.592-0.025-8.592l-3.078 1.769c-1.436 1.333-2.949 0.974-2.949 0.974-1.385 0.206-1.103-0.82-1.514-2.359-0.41-1.538 0.564-4.129 0.564-4.129l3.488-6.95c0.333-0.436 0.359-0.692 0.359-0.692s0.153-6.156 0.281-6.771c0.129-0.615 1.976-1.923 1.976-1.923l-0.308-0.949-2.539 0.102c-1.796 0-1.898-1.616-1.898-1.616l4.643-0.77 2.77-3c0.847-0.796 3.027-0.54 3.027-0.54 3.615 0.025 5 3.925 5 3.925 1.334 3.59-0.897 4.821-0.897 4.821l0.487 0.873c0.281 0.486-0.076 0.846-0.076 0.846l-0.873 0.437c-0.589 0.077-0.461 0.589-0.461 0.589 0.205 0.333 0.487 0.628 1.025 0.628 0.539 0 4.617 3.001 4.617 3.001 0.205-0.013 0.82-1.398 0.82-1.398 0.102-0.616-0.436-1.257-0.668-2.154-0.23-0.897 1.36-1.564 1.36-1.564 2.771-1.053 8.079 3.103 8.079 3.103 2.313 1.375 3.235 3.669 3.406 4.143 0.018 0.051 0.035 0.105 0.056 0.166 0.513 1.514 1.206 8.463 1.206 8.463 0.743 4.899-0.591 9.054-0.591 9.054 1.257 1.873 1.257 8.001 1.257 8.001-0.084 0.182-0.307 0.216-0.539 0.195 0.051 0.354 0.052 0.574 0.052 0.574-0.662 2.927 1.621 5.26 1.621 5.26l-0.846 0.436c-1.822-1-1.873-4.462-1.873-4.462 0.025-1.334-0.513-2.847-0.513-2.847 0.282 1-0.335 3.025-0.335 3.025-0.256 1.463-1.23 2.36-1.23 2.36 0.463 2.309-0.819 5.001-0.819 5.001l-0.796-0.436c0.873-0.615 0.744-3.719 0.744-3.719-0.73 1.424-3.309 0.962-3.309 0.962 0.539 0.385 0.924 2.192 0.924 2.192l-0.77-0.076-0.115-0.5c-0.154-0.846-1.039-1.77-1.039-1.77-0.77 0.077-2.424-0.27-2.424-0.27 0.115 0.423-0.308 1.809-0.424 2.309-0.115 0.5 0.654 9.426 0.654 9.426 0.5 1.73 3.193 7.066 3.193 7.066 1.359 2.257 2.462 10.336 2.462 10.336 0.18 1.538 1.334 3.564 1.334 3.564 0.642 1.975-0.437 4.052-0.437 4.052 0.462 0.873 0.82 3.283 0.82 3.283-0.332 1.641-1.922 1.744-1.922 1.744-1.592 0.333-2.258-0.282-2.258-0.282-0.59-0.616-0.795-1.053-1.719 0.026-0.923 1.076-3.641 0.666-3.641 0.666-2.746 0.153-4.516-0.538-4.516-0.538-0.357-0.232-1.615-0.488-0.896-1.796 0.718-1.308 2.821-0.846 3.154-0.923s1.078-0.744 1.078-0.744c1.051-0.794 2.564-2.54 2.564-2.54-0.95-0.667-0.18-2.154 0-2.872 0.179-0.719-0.155-2.846-0.309-4.104-0.154-1.257-1.18-5.668-1.82-6.874-0.642-1.206-3.13-3.795-3.13-3.795-0.923-1.359-0.82-2.386-1.974-6.028s-2.822-4.257-2.822-4.257c-0.77-0.076-2.282 2.231-2.282 2.231-0.949 2.232-2.616 3.361-2.616 3.361-0.385 0.358-1.025 0.59-1.462 1.898-0.436 1.308-2.949 4.539-2.949 4.539-0.59 0.642-1.821 2.771-1.821 2.771-0.615 0.949-3.23 7.207-3.795 8.284s-0.103 2.103-0.103 2.103c0.025 2.181-1.026 2.898-1.026 2.898 0 0.539-0.436 2.565-0.436 2.565-0.564 2.128-2.053 1.437-2.053 1.437-0.897-0.103-1.437-0.641-1.437-0.641-0.666-1.308-2.847-1.078-2.847-1.078-0.641-0.41-3.564-0.923-3.564-0.923s-1.82-1.745-2.539-2.59c-0.719-0.846-0.539-1.975-0.539-1.975-0.148-0.846-0.021-1.257 0.62-1.283zm49.658-38.853c-0.059-1.976-0.595-4.926-0.595-4.926-0.333 1.539-1.976 2.283-1.976 2.283 1.357 0.672 2.129 1.694 2.571 2.643zm-25.011-27.06c-0.23-0.153-1.487-1.847-1.487-1.847s-1.129 1.693-1.205 2.386c-0.077 0.692 0.461 2.437 0.642 1.744 0.178-0.692 2.281-2.129 2.05-2.283z" fill="#262261"/>
		<defs>
			<path id="SVGID_1_" d="m24.988 5.247s0.154 2.513 0.076 2.975 0.359 0.411 0.667 0.18c0 0 1.692-0.77 2.052-0.359l1.924-1.873s0.488-0.512 0.025-1.154l-1.563-1.949s-0.36-0.564-1.206-0.026l-2.002 1.539 0.027 0.667z"/>
		</defs>
		<use overflow="visible" xlink:href="#SVGID_1_" fill="#FFFFFF"/>
		<clipPath id="SVGID_2_">
			<use overflow="visible" xlink:href="#SVGID_1_"/>
		</clipPath>
		<path clip-path="url(#SVGID_2_)" d="m24.589 5.599l2.771-2.231s0.346-0.366 0.75 0.191l1.039 1.481s0.115 0.442-0.309 0.789l-3.866 3-0.385-3.23z" fill="#CDD7E2"/>
<metadata><rdf:RDF><cc:Work><dc:format>image/svg+xml</dc:format><dc:type rdf:resource="http://purl.org/dc/dcmitype/StillImage"/><cc:license rdf:resource="http://creativecommons.org/licenses/publicdomain/"/><dc:publisher><cc:Agent rdf:about="http://openclipart.org/"><dc:title>Openclipart</dc:title></cc:Agent></dc:publisher><dc:title>backpacker  on a phone</dc:title><dc:date>2008-10-01T19:35:02</dc:date><dc:description>backpacking, backpacking, clip art, clipart, image, media, mobile, mobile, phone, phone, public domain, silhouette, silhouette, svg, travel, travel, </dc:description><dc:source>http://openclipart.org/detail/19482/backpacker--on-a-phone-by-shokunin</dc:source><dc:creator><cc:Agent><dc:title>shokunin</dc:title></cc:Agent></dc:creator><dc:subject><rdf:Bag><rdf:li>backpacking</rdf:li><rdf:li>clip art</rdf:li><rdf:li>clipart</rdf:li><rdf:li>image</rdf:li><rdf:li>media</rdf:li><rdf:li>mobile</rdf:li><rdf:li>phone</rdf:li><rdf:li>public domain</rdf:li><rdf:li>silhouette</rdf:li><rdf:li>svg</rdf:li><rdf:li>travel</rdf:li></rdf:Bag></dc:subject></cc:Work><cc:License rdf:about="http://creativecommons.org/licenses/publicdomain/"><cc:permits rdf:resource="http://creativecommons.org/ns#Reproduction"/><cc:permits rdf:resource="http://creativecommons.org/ns#Distribution"/><cc:permits rdf:resource="http://creativecommons.org/ns#DerivativeWorks"/></cc:License></rdf:RDF></metadata></svg>
